# File created by Blade
# Date/Time:  Thu Jan 22 19:29:39 2015
# Frame Rate: 120.000 fps
#------------------------------------------------------
:FULLY-SPECIFIED
:DEGREES
1829
root 0.399678 33.344738 2.425742 6.969012 -9.446060 -1.630746
RightUpLeg -9.301330 -0.125726 -2.234365
RightLeg 15.397449 -0.000000 -0.000000
RightFoot -11.504572 1.283382 8.634169
RightToeBase -6.707477 -0.000000 0.000000
LeftUpLeg -2.726176 7.918538 -3.940174
LeftLeg 5.491111 -0.000000 -0.000000
LeftFoot -16.170008 4.672076 -16.794835
LeftToeBase 6.675727 -0.000000 -0.000000
Spine -6.561086 -4.934311 -3.517379
RightShoulder -20.055028 -21.034894 -15.379758
RightArm 18.103391 13.839727 54.882028
RightForeArm -5.139677 -0.000000 43.809844
RightHand 3.442060 -0.000000 -1.305340
RightHandThumb1 -24.326973 -0.000000 -32.862282
LeftShoulder -22.247639 3.686940 25.927358
LeftArm 23.257414 -21.143843 -75.121592
LeftForeArm -2.512611 -0.000000 100.812495
LeftHand -13.855350 -0.000000 35.226513
LeftHandThumb1 -26.253704 0.000000 33.147579
Head -18.352409 13.052595 3.894537
1830
root 0.383518 33.335305 2.440837 6.892264 -9.697657 -1.484320
RightUpLeg -9.236748 -0.194122 -2.303053
RightLeg 15.423413 -0.000000 -0.000000
RightFoot -11.754490 1.199283 8.346934
RightToeBase -6.860616 -0.000000 0.000000
LeftUpLeg -2.497715 8.194783 -4.060943
LeftLeg 5.261142 -0.000000 -0.000000
LeftFoot -16.122806 4.485866 -16.871728
LeftToeBase 6.696727 -0.000000 -0.000000
Spine -6.666586 -4.748799 -3.532053
RightShoulder -19.860585 -20.729909 -15.694162
RightArm 18.170742 14.545423 54.161568
RightForeArm -4.981010 0.000000 43.259516
RightHand 3.868722 0.000000 -1.341195
RightHandThumb1 -24.326973 -0.000000 -32.862282
LeftShoulder -22.397245 3.763488 25.948970
LeftArm 22.670660 -22.261299 -74.183039
LeftForeArm -3.452349 -0.000000 101.366997
LeftHand -14.006655 -0.000000 34.535481
LeftHandThumb1 -26.253704 0.000000 33.147579
Head -18.161173 13.160992 3.842628
1831
root 0.364994 33.326949 2.458727 6.824261 -9.898487 -1.372669
RightUpLeg -9.137190 -0.331105 -2.333253
RightLeg 15.386490 -0.000000 -0.000000
RightFoot -11.944612 1.181523 8.104913
RightToeBase -6.839152 -0.000000 0.000000
LeftUpLeg -2.268272 8.521699 -4.132489
LeftLeg 5.016910 -0.000000 -0.000000
LeftFoot -16.045022 4.275572 -16.793397
LeftToeBase 6.553937 -0.000000 -0.000000
Spine -6.769859 -4.714912 -3.448542
RightShoulder -19.690888 -20.453249 -16.020928
RightArm 18.411054 15.232417 53.479021
RightForeArm -4.903904 0.000000 42.719565
RightHand 4.218245 -0.000000 -1.272320
RightHandThumb1 -24.326973 -0.000000 -32.862282
LeftShoulder -22.738229 4.055894 25.804288
LeftArm 22.355978 -23.366624 -73.309711
LeftForeArm -4.351639 -0.000000 101.792347
LeftHand -14.255268 -0.000000 34.202927
LeftHandThumb1 -26.253704 0.000000 33.147579
Head -17.988854 13.410451 3.660297
1832
root 0.345882 33.319103 2.470063 6.769045 -10.083975 -1.224476
RightUpLeg -9.063293 -0.436893 -2.394805
RightLeg 15.340680 -0.000000 -0.000000
RightFoot -12.151850 1.118186 7.893255
RightToeBase -6.815025 -0.000000 0.000000
LeftUpLeg -2.074172 8.620458 -4.258803
LeftLeg 4.783416 -0.000000 -0.000000
LeftFoot -15.981284 4.282389 -16.947137
LeftToeBase 6.102276 -0.000000 -0.000000
Spine -6.887308 -4.432085 -3.483133
RightShoulder -19.672956 -20.178967 -16.242753
RightArm 18.483408 16.004612 52.796001
RightForeArm -4.828646 -0.000000 42.130506
RightHand 4.619850 -0.000000 -1.110174
RightHandThumb1 -24.326973 -0.000000 -32.862282
LeftShoulder -22.647875 4.171194 25.829246
LeftArm 21.743423 -24.594309 -72.387006
LeftForeArm -5.250648 -0.000000 102.307845
LeftHand -14.672886 -0.000000 33.948304
LeftHandThumb1 -26.253704 0.000000 33.147579
Head -17.769841 13.348731 3.619446
1833
root 0.329786 33.309538 2.484999 6.686976 -10.248589 -1.093347
RightUpLeg -8.929738 -0.549272 -2.443178
RightLeg 15.240514 -0.000000 -0.000000
RightFoot -12.382302 1.017236 7.706319
RightToeBase -6.738073 -0.000000 0.000000
LeftUpLeg -1.839088 8.731383 -4.349094
LeftLeg 4.541894 -0.000000 -0.000000
LeftFoot -15.929690 4.214858 -17.027344
LeftToeBase 5.773931 -0.000000 -0.000000
Spine -6.966864 -4.264789 -3.440053
RightShoulder -19.570937 -19.835749 -16.572785
RightArm 18.566496 16.738224 52.170204
RightForeArm -4.799930 -0.000000 41.538799
RightHand 5.023422 0.000000 -0.880500
RightHandThumb1 -24.326973 -0.000000 -32.862282
LeftShoulder -22.834461 4.601896 25.593987
LeftArm 21.651180 -25.750149 -71.566770
LeftForeArm -6.047494 -0.000000 102.617703
LeftHand -14.980580 -0.000000 33.567577
LeftHandThumb1 -26.253704 0.000000 33.147579
Head -17.533408 13.430987 3.475494
1834
root 0.307763 33.301196 2.501592 6.616930 -10.410743 -0.984799
RightUpLeg -8.802200 -0.672596 -2.473057
RightLeg 15.142306 -0.000000 -0.000000
RightFoot -12.639955 0.947443 7.470361
RightToeBase -6.621806 -0.000000 0.000000
LeftUpLeg -1.604828 8.859443 -4.409042
LeftLeg 4.294267 -0.000000 -0.000000
LeftFoot -15.868158 4.141168 -17.104655
LeftToeBase 5.416836 -0.000000 -0.000000
Spine -7.051577 -4.134686 -3.365141
RightShoulder -19.413953 -19.553321 -16.907968
RightArm 18.606972 17.428252 51.536839
RightForeArm -4.725205 -0.000000 41.070061
RightHand 5.204940 -0.000000 -0.741180
RightHandThumb1 -24.326973 -0.000000 -32.862282
LeftShoulder -22.978935 4.678375 25.566203
LeftArm 20.988687 -26.869412 -70.588394
LeftForeArm -6.804310 -0.000000 102.906912
LeftHand -15.322364 -0.000000 32.633604
LeftHandThumb1 -26.253704 0.000000 33.147579
Head -17.324175 13.455009 3.360156
1835
root 0.285753 33.293876 2.513806 6.578215 -10.541424 -0.875354
RightUpLeg -8.712014 -0.800474 -2.505333
RightLeg 15.052431 -0.000000 -0.000000
RightFoot -12.915042 0.913861 7.272393
RightToeBase -6.606868 -0.000000 0.000000
LeftUpLeg -1.419287 8.850669 -4.470345
LeftLeg 4.049094 -0.000000 -0.000000
LeftFoot -15.813467 4.233349 -17.019199
LeftToeBase 5.150831 -0.000000 -0.000000
Spine -7.161715 -4.007124 -3.296801
RightShoulder -19.294720 -19.245144 -17.202160
RightArm 18.641274 17.996270 50.812382
RightForeArm -4.391542 -0.000000 40.517050
RightHand 5.453120 -0.000000 -0.746865
RightHandThumb1 -24.326973 -0.000000 -32.862282
LeftShoulder -23.156503 4.839106 25.503767
LeftArm 20.480609 -27.930730 -69.679338
LeftForeArm -7.470613 -0.000000 103.099938
LeftHand -15.715746 -0.000000 32.155862
LeftHandThumb1 -26.253704 0.000000 33.147579
Head -17.083062 13.533598 3.159255
1836
root 0.261852 33.287162 2.528058 6.526738 -10.652904 -0.737200
RightUpLeg -8.593971 -0.949160 -2.562833
RightLeg 14.938090 -0.000000 -0.000000
RightFoot -13.206293 0.889326 7.043109
RightToeBase -6.895144 -0.000000 0.000000
LeftUpLeg -1.245148 8.929588 -4.551558
LeftLeg 3.846298 -0.000000 -0.000000
LeftFoot -15.691292 4.208126 -16.958124
LeftToeBase 4.792880 -0.000000 -0.000000
Spine -7.259466 -3.887513 -3.262881
RightShoulder -19.203987 -18.984653 -17.501910
RightArm 18.702049 18.585980 50.188821
RightForeArm -4.239346 -0.000000 40.026137
RightHand 5.458127 -0.000000 -0.625614
RightHandThumb1 -24.326973 -0.000000 -32.862282
LeftShoulder -23.277574 5.028455 25.440810
LeftArm 19.921842 -29.061651 -68.763314
LeftForeArm -8.505627 -0.000000 103.246126
LeftHand -15.881353 -0.000000 31.389803
LeftHandThumb1 -26.253704 0.000000 33.147579
Head -16.859949 13.532191 3.005995
1837
root 0.236181 33.279861 2.539996 6.487014 -10.742180 -0.610395
RightUpLeg -8.482335 -1.077624 -2.611068
RightLeg 14.829083 -0.000000 -0.000000
RightFoot -13.508405 0.827470 6.818024
RightToeBase -6.921320 -0.000000 0.000000
LeftUpLeg -1.099029 8.987632 -4.621609
LeftLeg 3.667455 -0.000000 -0.000000
LeftFoot -15.556475 4.177784 -16.957511
LeftToeBase 4.358345 -0.000000 -0.000000
Spine -7.357882 -3.769468 -3.211141
RightShoulder -19.152335 -18.768747 -17.797868
RightArm 18.840175 19.224224 49.645371
RightForeArm -4.140817 -0.000000 39.465754
RightHand 5.683246 -0.000000 -0.194485
RightHandThumb1 -24.326973 -0.000000 -32.862282
LeftShoulder -23.467726 5.192625 25.379782
LeftArm 19.425563 -30.004118 -67.866021
LeftForeArm -9.343066 -0.000000 103.230893
LeftHand -16.016106 -0.000000 30.939156
LeftHandThumb1 -26.253704 0.000000 33.147579
Head -16.616871 13.553544 2.809240
1838
root 0.208993 33.273103 2.552369 6.448269 -10.800426 -0.480629
RightUpLeg -8.352001 -1.206206 -2.663208
RightLeg 14.699006 -0.000000 -0.000000
RightFoot -13.784179 0.688996 6.480765
RightToeBase -7.124448 -0.000000 0.000000
LeftUpLeg -0.970169 8.979927 -4.694587
LeftLeg 3.515032 -0.000000 -0.000000
LeftFoot -15.448164 4.230800 -16.852246
LeftToeBase 4.151024 -0.000000 -0.000000
Spine -7.459069 -3.696623 -3.163468
RightShoulder -19.013413 -18.466187 -18.104330
RightArm 18.805033 19.811706 49.016929
RightForeArm -4.021779 -0.000000 38.952970
RightHand 6.001023 -0.000000 0.078141
RightHandThumb1 -24.326973 -0.000000 -32.862282
LeftShoulder -23.603957 5.412365 25.322514
LeftArm 18.876575 -30.982507 -67.011358
LeftForeArm -10.156885 -0.000000 103.236434
LeftHand -16.068013 -0.000000 30.620254
LeftHandThumb1 -26.253704 0.000000 33.147579
Head -16.362551 13.541002 2.622353
1839
root 0.178350 33.265827 2.563492 6.423117 -10.916618 -0.349551
RightUpLeg -8.279481 -1.258930 -2.733735
RightLeg 14.630023 -0.000000 -0.000000
RightFoot -14.065882 0.607944 6.083338
RightToeBase -7.436971 -0.000000 0.000000
LeftUpLeg -0.850040 9.050933 -4.771576
LeftLeg 3.349135 -0.000000 -0.000000
LeftFoot -15.300518 4.304430 -16.626397
LeftToeBase 4.104693 -0.000000 -0.000000
Spine -7.559169 -3.467803 -3.144765
RightShoulder -18.985804 -18.213856 -18.385879
RightArm 18.779009 20.404498 48.466368
RightForeArm -3.856767 0.000000 38.459011
RightHand 6.318876 -0.000000 -0.015991
RightHandThumb1 -24.326973 -0.000000 -32.862282
LeftShoulder -23.722743 5.511912 25.292304
LeftArm 18.307869 -31.853515 -66.087282
LeftForeArm -10.992636 0.000000 103.174327
LeftHand -16.262428 0.000000 30.538883
LeftHandThumb1 -26.253704 0.000000 33.147579
Head -16.150199 13.523803 2.397407
1840
root 0.150311 33.259944 2.572882 6.410539 -10.960479 -0.209753
RightUpLeg -8.254856 -1.476024 -2.804174
RightLeg 14.651209 -0.000000 -0.000000
RightFoot -14.370034 0.622566 5.688075
RightToeBase -7.613184 -0.000000 0.000000
LeftUpLeg -0.779909 9.190835 -4.857206
LeftLeg 3.218029 -0.000000 -0.000000
LeftFoot -15.031691 4.242861 -16.408011
LeftToeBase 3.840680 -0.000000 -0.000000
Spine -7.663539 -3.352504 -3.101612
RightShoulder -18.917801 -18.007757 -18.663315
RightArm 18.802018 21.024082 47.946902
RightForeArm -3.709551 0.000000 38.009277
RightHand 6.421871 -0.000000 0.197066
RightHandThumb1 -24.326973 -0.000000 -32.862282
LeftShoulder -23.850538 5.651980 25.216456
LeftArm 17.713551 -32.724079 -65.157360
LeftForeArm -11.711827 -0.000000 103.082601
LeftHand -16.422957 -0.000000 30.302314
LeftHandThumb1 -26.253704 0.000000 33.147579
Head -15.919577 13.454613 2.140697
